<mxfile host="app.diagrams.net" agent="Mozilla/5.0 (Macintosh; Intel Mac OS X 10_15_7) AppleWebKit/537.36 (KHTML, like Gecko) Chrome/130.0.0.0 Safari/537.36" version="24.8.4">
  <diagram id="C5RBs43oDa-KdzZeNtuy" name="Page-1">
    <mxGraphModel dx="2261" dy="785" grid="1" gridSize="10" guides="1" tooltips="1" connect="1" arrows="1" fold="1" page="1" pageScale="1" pageWidth="827" pageHeight="1169" math="0" shadow="0">
      <root>
        <mxCell id="WIyWlLk6GJQsqaUBKTNV-0" />
        <mxCell id="WIyWlLk6GJQsqaUBKTNV-1" parent="WIyWlLk6GJQsqaUBKTNV-0" />
        <mxCell id="DcaVA0wvGm4CaLg3gKqz-28" value="" style="edgeStyle=orthogonalEdgeStyle;rounded=0;orthogonalLoop=1;jettySize=auto;html=1;" edge="1" parent="WIyWlLk6GJQsqaUBKTNV-1" source="WIyWlLk6GJQsqaUBKTNV-3" target="DcaVA0wvGm4CaLg3gKqz-27">
          <mxGeometry relative="1" as="geometry" />
        </mxCell>
        <mxCell id="WIyWlLk6GJQsqaUBKTNV-3" value="" style="rounded=1;whiteSpace=wrap;html=1;fontSize=12;glass=0;strokeWidth=1;shadow=0;" parent="WIyWlLk6GJQsqaUBKTNV-1" vertex="1">
          <mxGeometry x="20" y="10" width="800" height="270" as="geometry" />
        </mxCell>
        <mxCell id="DcaVA0wvGm4CaLg3gKqz-5" value="" style="edgeStyle=orthogonalEdgeStyle;rounded=0;orthogonalLoop=1;jettySize=auto;html=1;" edge="1" parent="WIyWlLk6GJQsqaUBKTNV-1" source="DcaVA0wvGm4CaLg3gKqz-3" target="DcaVA0wvGm4CaLg3gKqz-4">
          <mxGeometry relative="1" as="geometry" />
        </mxCell>
        <mxCell id="DcaVA0wvGm4CaLg3gKqz-6" value="否" style="edgeLabel;html=1;align=center;verticalAlign=middle;resizable=0;points=[];" vertex="1" connectable="0" parent="DcaVA0wvGm4CaLg3gKqz-5">
          <mxGeometry x="-0.3" y="1" relative="1" as="geometry">
            <mxPoint as="offset" />
          </mxGeometry>
        </mxCell>
        <mxCell id="DcaVA0wvGm4CaLg3gKqz-8" value="" style="edgeStyle=orthogonalEdgeStyle;rounded=0;orthogonalLoop=1;jettySize=auto;html=1;" edge="1" parent="WIyWlLk6GJQsqaUBKTNV-1" source="DcaVA0wvGm4CaLg3gKqz-3" target="DcaVA0wvGm4CaLg3gKqz-7">
          <mxGeometry relative="1" as="geometry" />
        </mxCell>
        <mxCell id="DcaVA0wvGm4CaLg3gKqz-3" value="存在owner_id?" style="rhombus;whiteSpace=wrap;html=1;" vertex="1" parent="WIyWlLk6GJQsqaUBKTNV-1">
          <mxGeometry x="55" y="60" width="80" height="80" as="geometry" />
        </mxCell>
        <mxCell id="DcaVA0wvGm4CaLg3gKqz-12" value="" style="edgeStyle=orthogonalEdgeStyle;rounded=0;orthogonalLoop=1;jettySize=auto;html=1;" edge="1" parent="WIyWlLk6GJQsqaUBKTNV-1" source="DcaVA0wvGm4CaLg3gKqz-4" target="DcaVA0wvGm4CaLg3gKqz-16">
          <mxGeometry relative="1" as="geometry">
            <mxPoint x="409" y="100" as="targetPoint" />
          </mxGeometry>
        </mxCell>
        <mxCell id="DcaVA0wvGm4CaLg3gKqz-13" value="否" style="edgeLabel;html=1;align=center;verticalAlign=middle;resizable=0;points=[];" vertex="1" connectable="0" parent="DcaVA0wvGm4CaLg3gKqz-12">
          <mxGeometry x="-0.2" y="1" relative="1" as="geometry">
            <mxPoint x="6" y="1" as="offset" />
          </mxGeometry>
        </mxCell>
        <mxCell id="DcaVA0wvGm4CaLg3gKqz-15" value="" style="edgeStyle=orthogonalEdgeStyle;rounded=0;orthogonalLoop=1;jettySize=auto;html=1;" edge="1" parent="WIyWlLk6GJQsqaUBKTNV-1" source="DcaVA0wvGm4CaLg3gKqz-4" target="DcaVA0wvGm4CaLg3gKqz-14">
          <mxGeometry relative="1" as="geometry" />
        </mxCell>
        <mxCell id="DcaVA0wvGm4CaLg3gKqz-4" value="存在owner_id?" style="rhombus;whiteSpace=wrap;html=1;" vertex="1" parent="WIyWlLk6GJQsqaUBKTNV-1">
          <mxGeometry x="269" y="60" width="80" height="80" as="geometry" />
        </mxCell>
        <mxCell id="DcaVA0wvGm4CaLg3gKqz-10" value="" style="edgeStyle=orthogonalEdgeStyle;rounded=0;orthogonalLoop=1;jettySize=auto;html=1;entryX=0;entryY=0.5;entryDx=0;entryDy=0;" edge="1" parent="WIyWlLk6GJQsqaUBKTNV-1" source="DcaVA0wvGm4CaLg3gKqz-7" target="DcaVA0wvGm4CaLg3gKqz-4">
          <mxGeometry relative="1" as="geometry">
            <mxPoint x="235" y="220" as="targetPoint" />
          </mxGeometry>
        </mxCell>
        <mxCell id="DcaVA0wvGm4CaLg3gKqz-7" value="decode(owner_id)" style="whiteSpace=wrap;html=1;" vertex="1" parent="WIyWlLk6GJQsqaUBKTNV-1">
          <mxGeometry x="35" y="190" width="120" height="60" as="geometry" />
        </mxCell>
        <mxCell id="DcaVA0wvGm4CaLg3gKqz-25" value="" style="edgeStyle=orthogonalEdgeStyle;rounded=0;orthogonalLoop=1;jettySize=auto;html=1;entryX=0;entryY=0.5;entryDx=0;entryDy=0;" edge="1" parent="WIyWlLk6GJQsqaUBKTNV-1" source="DcaVA0wvGm4CaLg3gKqz-14" target="DcaVA0wvGm4CaLg3gKqz-16">
          <mxGeometry relative="1" as="geometry" />
        </mxCell>
        <mxCell id="DcaVA0wvGm4CaLg3gKqz-14" value="decode(owner_name)" style="whiteSpace=wrap;html=1;" vertex="1" parent="WIyWlLk6GJQsqaUBKTNV-1">
          <mxGeometry x="249" y="190" width="120" height="60" as="geometry" />
        </mxCell>
        <mxCell id="DcaVA0wvGm4CaLg3gKqz-18" value="是" style="edgeStyle=orthogonalEdgeStyle;rounded=0;orthogonalLoop=1;jettySize=auto;html=1;" edge="1" parent="WIyWlLk6GJQsqaUBKTNV-1" source="DcaVA0wvGm4CaLg3gKqz-16" target="DcaVA0wvGm4CaLg3gKqz-17">
          <mxGeometry relative="1" as="geometry" />
        </mxCell>
        <mxCell id="DcaVA0wvGm4CaLg3gKqz-20" value="" style="edgeStyle=orthogonalEdgeStyle;rounded=0;orthogonalLoop=1;jettySize=auto;html=1;" edge="1" parent="WIyWlLk6GJQsqaUBKTNV-1" source="DcaVA0wvGm4CaLg3gKqz-16" target="DcaVA0wvGm4CaLg3gKqz-19">
          <mxGeometry relative="1" as="geometry">
            <Array as="points">
              <mxPoint x="615" y="100" />
              <mxPoint x="615" y="100" />
            </Array>
          </mxGeometry>
        </mxCell>
        <mxCell id="DcaVA0wvGm4CaLg3gKqz-21" value="否" style="edgeLabel;html=1;align=center;verticalAlign=middle;resizable=0;points=[];" vertex="1" connectable="0" parent="DcaVA0wvGm4CaLg3gKqz-20">
          <mxGeometry x="0.18" y="-1" relative="1" as="geometry">
            <mxPoint x="-13" y="-1" as="offset" />
          </mxGeometry>
        </mxCell>
        <mxCell id="DcaVA0wvGm4CaLg3gKqz-16" value="存在ext?" style="rhombus;whiteSpace=wrap;html=1;" vertex="1" parent="WIyWlLk6GJQsqaUBKTNV-1">
          <mxGeometry x="485" y="60" width="80" height="80" as="geometry" />
        </mxCell>
        <mxCell id="DcaVA0wvGm4CaLg3gKqz-31" value="" style="edgeStyle=orthogonalEdgeStyle;rounded=0;orthogonalLoop=1;jettySize=auto;html=1;entryX=0;entryY=0.5;entryDx=0;entryDy=0;" edge="1" parent="WIyWlLk6GJQsqaUBKTNV-1" source="DcaVA0wvGm4CaLg3gKqz-17" target="DcaVA0wvGm4CaLg3gKqz-19">
          <mxGeometry relative="1" as="geometry" />
        </mxCell>
        <mxCell id="DcaVA0wvGm4CaLg3gKqz-17" value="decode(ext)" style="whiteSpace=wrap;html=1;" vertex="1" parent="WIyWlLk6GJQsqaUBKTNV-1">
          <mxGeometry x="465" y="190" width="120" height="60" as="geometry" />
        </mxCell>
        <mxCell id="DcaVA0wvGm4CaLg3gKqz-23" value="" style="edgeStyle=orthogonalEdgeStyle;rounded=0;orthogonalLoop=1;jettySize=auto;html=1;" edge="1" parent="WIyWlLk6GJQsqaUBKTNV-1" source="DcaVA0wvGm4CaLg3gKqz-19" target="DcaVA0wvGm4CaLg3gKqz-22">
          <mxGeometry relative="1" as="geometry" />
        </mxCell>
        <mxCell id="DcaVA0wvGm4CaLg3gKqz-19" value="存在鼓掌数?" style="rhombus;whiteSpace=wrap;html=1;" vertex="1" parent="WIyWlLk6GJQsqaUBKTNV-1">
          <mxGeometry x="705" y="60" width="80" height="80" as="geometry" />
        </mxCell>
        <mxCell id="DcaVA0wvGm4CaLg3gKqz-22" value="点赞数=鼓掌数&lt;div&gt;like_count=clap_count&lt;/div&gt;" style="whiteSpace=wrap;html=1;" vertex="1" parent="WIyWlLk6GJQsqaUBKTNV-1">
          <mxGeometry x="685" y="190" width="120" height="60" as="geometry" />
        </mxCell>
        <mxCell id="DcaVA0wvGm4CaLg3gKqz-26" value="参数转化" style="text;html=1;align=center;verticalAlign=middle;whiteSpace=wrap;rounded=0;fontStyle=1;fontSize=15;" vertex="1" parent="WIyWlLk6GJQsqaUBKTNV-1">
          <mxGeometry x="40" y="20" width="70" height="30" as="geometry" />
        </mxCell>
        <mxCell id="DcaVA0wvGm4CaLg3gKqz-38" value="" style="edgeStyle=orthogonalEdgeStyle;rounded=0;orthogonalLoop=1;jettySize=auto;html=1;" edge="1" parent="WIyWlLk6GJQsqaUBKTNV-1" source="DcaVA0wvGm4CaLg3gKqz-27" target="DcaVA0wvGm4CaLg3gKqz-37">
          <mxGeometry relative="1" as="geometry" />
        </mxCell>
        <mxCell id="DcaVA0wvGm4CaLg3gKqz-27" value="" style="rounded=1;whiteSpace=wrap;html=1;fontSize=12;glass=0;strokeWidth=1;shadow=0;" vertex="1" parent="WIyWlLk6GJQsqaUBKTNV-1">
          <mxGeometry x="20" y="340" width="800" height="270" as="geometry" />
        </mxCell>
        <mxCell id="DcaVA0wvGm4CaLg3gKqz-30" value="参数检查" style="text;html=1;align=center;verticalAlign=middle;whiteSpace=wrap;rounded=0;fontStyle=1;fontSize=15;" vertex="1" parent="WIyWlLk6GJQsqaUBKTNV-1">
          <mxGeometry x="40" y="370" width="70" height="30" as="geometry" />
        </mxCell>
        <mxCell id="DcaVA0wvGm4CaLg3gKqz-34" value="" style="edgeStyle=orthogonalEdgeStyle;rounded=0;orthogonalLoop=1;jettySize=auto;html=1;" edge="1" parent="WIyWlLk6GJQsqaUBKTNV-1" source="DcaVA0wvGm4CaLg3gKqz-32" target="DcaVA0wvGm4CaLg3gKqz-33">
          <mxGeometry relative="1" as="geometry" />
        </mxCell>
        <mxCell id="DcaVA0wvGm4CaLg3gKqz-32" value="校验各个参数的类型是否正确" style="rounded=0;whiteSpace=wrap;html=1;" vertex="1" parent="WIyWlLk6GJQsqaUBKTNV-1">
          <mxGeometry x="55" y="430" width="120" height="60" as="geometry" />
        </mxCell>
        <mxCell id="DcaVA0wvGm4CaLg3gKqz-33" value="校验必传参数是否缺失" style="rounded=0;whiteSpace=wrap;html=1;" vertex="1" parent="WIyWlLk6GJQsqaUBKTNV-1">
          <mxGeometry x="255" y="430" width="120" height="60" as="geometry" />
        </mxCell>
        <mxCell id="DcaVA0wvGm4CaLg3gKqz-44" value="" style="edgeStyle=orthogonalEdgeStyle;rounded=0;orthogonalLoop=1;jettySize=auto;html=1;" edge="1" parent="WIyWlLk6GJQsqaUBKTNV-1" source="DcaVA0wvGm4CaLg3gKqz-37" target="DcaVA0wvGm4CaLg3gKqz-43">
          <mxGeometry relative="1" as="geometry" />
        </mxCell>
        <mxCell id="DcaVA0wvGm4CaLg3gKqz-37" value="" style="rounded=1;whiteSpace=wrap;html=1;fontSize=12;glass=0;strokeWidth=1;shadow=0;" vertex="1" parent="WIyWlLk6GJQsqaUBKTNV-1">
          <mxGeometry x="20" y="690" width="800" height="270" as="geometry" />
        </mxCell>
        <mxCell id="DcaVA0wvGm4CaLg3gKqz-39" value="合并公餐" style="text;html=1;align=center;verticalAlign=middle;whiteSpace=wrap;rounded=0;fontStyle=1;fontSize=15;" vertex="1" parent="WIyWlLk6GJQsqaUBKTNV-1">
          <mxGeometry x="40" y="720" width="70" height="30" as="geometry" />
        </mxCell>
        <mxCell id="DcaVA0wvGm4CaLg3gKqz-42" value="" style="edgeStyle=orthogonalEdgeStyle;rounded=0;orthogonalLoop=1;jettySize=auto;html=1;" edge="1" parent="WIyWlLk6GJQsqaUBKTNV-1" source="DcaVA0wvGm4CaLg3gKqz-40" target="DcaVA0wvGm4CaLg3gKqz-41">
          <mxGeometry relative="1" as="geometry" />
        </mxCell>
        <mxCell id="DcaVA0wvGm4CaLg3gKqz-40" value="合并cmode参数" style="rounded=0;whiteSpace=wrap;html=1;" vertex="1" parent="WIyWlLk6GJQsqaUBKTNV-1">
          <mxGeometry x="55" y="810" width="120" height="60" as="geometry" />
        </mxCell>
        <mxCell id="DcaVA0wvGm4CaLg3gKqz-41" value="合并audit_time参数" style="rounded=0;whiteSpace=wrap;html=1;" vertex="1" parent="WIyWlLk6GJQsqaUBKTNV-1">
          <mxGeometry x="255" y="810" width="120" height="60" as="geometry" />
        </mxCell>
        <mxCell id="DcaVA0wvGm4CaLg3gKqz-43" value="" style="rounded=1;whiteSpace=wrap;html=1;fontSize=12;glass=0;strokeWidth=1;shadow=0;" vertex="1" parent="WIyWlLk6GJQsqaUBKTNV-1">
          <mxGeometry x="-280" y="1040" width="1510" height="660" as="geometry" />
        </mxCell>
        <mxCell id="DcaVA0wvGm4CaLg3gKqz-48" value="" style="edgeStyle=orthogonalEdgeStyle;rounded=0;orthogonalLoop=1;jettySize=auto;html=1;" edge="1" parent="WIyWlLk6GJQsqaUBKTNV-1" source="DcaVA0wvGm4CaLg3gKqz-46" target="DcaVA0wvGm4CaLg3gKqz-47">
          <mxGeometry relative="1" as="geometry" />
        </mxCell>
        <mxCell id="DcaVA0wvGm4CaLg3gKqz-51" value="是" style="edgeLabel;html=1;align=center;verticalAlign=middle;resizable=0;points=[];" vertex="1" connectable="0" parent="DcaVA0wvGm4CaLg3gKqz-48">
          <mxGeometry x="-0.325" y="1" relative="1" as="geometry">
            <mxPoint x="13" y="1" as="offset" />
          </mxGeometry>
        </mxCell>
        <mxCell id="DcaVA0wvGm4CaLg3gKqz-46" value="资源是否为&lt;div&gt;热点资源？&lt;/div&gt;" style="rhombus;whiteSpace=wrap;html=1;" vertex="1" parent="WIyWlLk6GJQsqaUBKTNV-1">
          <mxGeometry x="-230" y="1070" width="80" height="80" as="geometry" />
        </mxCell>
        <mxCell id="DcaVA0wvGm4CaLg3gKqz-50" value="" style="edgeStyle=orthogonalEdgeStyle;rounded=0;orthogonalLoop=1;jettySize=auto;html=1;" edge="1" parent="WIyWlLk6GJQsqaUBKTNV-1" source="DcaVA0wvGm4CaLg3gKqz-47" target="DcaVA0wvGm4CaLg3gKqz-49">
          <mxGeometry relative="1" as="geometry" />
        </mxCell>
        <mxCell id="DcaVA0wvGm4CaLg3gKqz-52" value="否" style="edgeLabel;html=1;align=center;verticalAlign=middle;resizable=0;points=[];" vertex="1" connectable="0" parent="DcaVA0wvGm4CaLg3gKqz-50">
          <mxGeometry x="-0.1429" y="2" relative="1" as="geometry">
            <mxPoint x="-2" as="offset" />
          </mxGeometry>
        </mxCell>
        <mxCell id="DcaVA0wvGm4CaLg3gKqz-47" value="评论是否来&lt;div&gt;自数据同步？&lt;/div&gt;" style="rhombus;whiteSpace=wrap;html=1;" vertex="1" parent="WIyWlLk6GJQsqaUBKTNV-1">
          <mxGeometry x="-70" y="1070" width="80" height="80" as="geometry" />
        </mxCell>
        <mxCell id="DcaVA0wvGm4CaLg3gKqz-49" value="" style="whiteSpace=wrap;html=1;" vertex="1" parent="WIyWlLk6GJQsqaUBKTNV-1">
          <mxGeometry x="-260" y="1220" width="460" height="430" as="geometry" />
        </mxCell>
        <mxCell id="DcaVA0wvGm4CaLg3gKqz-56" value="" style="edgeStyle=orthogonalEdgeStyle;rounded=0;orthogonalLoop=1;jettySize=auto;html=1;" edge="1" parent="WIyWlLk6GJQsqaUBKTNV-1" source="DcaVA0wvGm4CaLg3gKqz-54" target="DcaVA0wvGm4CaLg3gKqz-55">
          <mxGeometry relative="1" as="geometry" />
        </mxCell>
        <mxCell id="DcaVA0wvGm4CaLg3gKqz-59" value="是" style="edgeLabel;html=1;align=center;verticalAlign=middle;resizable=0;points=[];" vertex="1" connectable="0" parent="DcaVA0wvGm4CaLg3gKqz-56">
          <mxGeometry x="-0.7" relative="1" as="geometry">
            <mxPoint as="offset" />
          </mxGeometry>
        </mxCell>
        <mxCell id="DcaVA0wvGm4CaLg3gKqz-58" value="" style="edgeStyle=orthogonalEdgeStyle;rounded=0;orthogonalLoop=1;jettySize=auto;html=1;" edge="1" parent="WIyWlLk6GJQsqaUBKTNV-1" source="DcaVA0wvGm4CaLg3gKqz-54" target="DcaVA0wvGm4CaLg3gKqz-57">
          <mxGeometry relative="1" as="geometry" />
        </mxCell>
        <mxCell id="DcaVA0wvGm4CaLg3gKqz-60" value="否" style="edgeLabel;html=1;align=center;verticalAlign=middle;resizable=0;points=[];" vertex="1" connectable="0" parent="DcaVA0wvGm4CaLg3gKqz-58">
          <mxGeometry x="-0.5143" y="-2" relative="1" as="geometry">
            <mxPoint as="offset" />
          </mxGeometry>
        </mxCell>
        <mxCell id="DcaVA0wvGm4CaLg3gKqz-54" value="添加评论？" style="rhombus;whiteSpace=wrap;html=1;" vertex="1" parent="WIyWlLk6GJQsqaUBKTNV-1">
          <mxGeometry x="-230" y="1335" width="80" height="80" as="geometry" />
        </mxCell>
        <mxCell id="DcaVA0wvGm4CaLg3gKqz-55" value="" style="whiteSpace=wrap;html=1;" vertex="1" parent="WIyWlLk6GJQsqaUBKTNV-1">
          <mxGeometry x="-120" y="1240" width="310" height="270" as="geometry" />
        </mxCell>
        <mxCell id="DcaVA0wvGm4CaLg3gKqz-62" value="" style="edgeStyle=orthogonalEdgeStyle;rounded=0;orthogonalLoop=1;jettySize=auto;html=1;" edge="1" parent="WIyWlLk6GJQsqaUBKTNV-1" source="DcaVA0wvGm4CaLg3gKqz-57" target="DcaVA0wvGm4CaLg3gKqz-61">
          <mxGeometry relative="1" as="geometry" />
        </mxCell>
        <mxCell id="DcaVA0wvGm4CaLg3gKqz-57" value="msg_key设置为动作" style="whiteSpace=wrap;html=1;" vertex="1" parent="WIyWlLk6GJQsqaUBKTNV-1">
          <mxGeometry x="-250" y="1570" width="120" height="60" as="geometry" />
        </mxCell>
        <mxCell id="DcaVA0wvGm4CaLg3gKqz-64" value="" style="edgeStyle=orthogonalEdgeStyle;rounded=0;orthogonalLoop=1;jettySize=auto;html=1;" edge="1" parent="WIyWlLk6GJQsqaUBKTNV-1" source="DcaVA0wvGm4CaLg3gKqz-61" target="DcaVA0wvGm4CaLg3gKqz-63">
          <mxGeometry relative="1" as="geometry" />
        </mxCell>
        <mxCell id="DcaVA0wvGm4CaLg3gKqz-61" value="消息写入队列&lt;div&gt;comment-hot-pipe&lt;/div&gt;" style="whiteSpace=wrap;html=1;" vertex="1" parent="WIyWlLk6GJQsqaUBKTNV-1">
          <mxGeometry x="-90" y="1570" width="120" height="60" as="geometry" />
        </mxCell>
        <mxCell id="DcaVA0wvGm4CaLg3gKqz-63" value="格式化返回数据" style="whiteSpace=wrap;html=1;" vertex="1" parent="WIyWlLk6GJQsqaUBKTNV-1">
          <mxGeometry x="70" y="1570" width="120" height="60" as="geometry" />
        </mxCell>
        <mxCell id="DcaVA0wvGm4CaLg3gKqz-67" value="" style="edgeStyle=orthogonalEdgeStyle;rounded=0;orthogonalLoop=1;jettySize=auto;html=1;" edge="1" parent="WIyWlLk6GJQsqaUBKTNV-1" source="DcaVA0wvGm4CaLg3gKqz-65" target="DcaVA0wvGm4CaLg3gKqz-66">
          <mxGeometry relative="1" as="geometry" />
        </mxCell>
        <mxCell id="DcaVA0wvGm4CaLg3gKqz-68" value="否" style="edgeLabel;html=1;align=center;verticalAlign=middle;resizable=0;points=[];" vertex="1" connectable="0" parent="DcaVA0wvGm4CaLg3gKqz-67">
          <mxGeometry x="-0.3667" relative="1" as="geometry">
            <mxPoint as="offset" />
          </mxGeometry>
        </mxCell>
        <mxCell id="DcaVA0wvGm4CaLg3gKqz-70" value="" style="edgeStyle=orthogonalEdgeStyle;rounded=0;orthogonalLoop=1;jettySize=auto;html=1;" edge="1" parent="WIyWlLk6GJQsqaUBKTNV-1" source="DcaVA0wvGm4CaLg3gKqz-65" target="DcaVA0wvGm4CaLg3gKqz-69">
          <mxGeometry relative="1" as="geometry" />
        </mxCell>
        <mxCell id="DcaVA0wvGm4CaLg3gKqz-65" value="存在reply_id?" style="rhombus;whiteSpace=wrap;html=1;" vertex="1" parent="WIyWlLk6GJQsqaUBKTNV-1">
          <mxGeometry x="-90" y="1250" width="80" height="80" as="geometry" />
        </mxCell>
        <mxCell id="DcaVA0wvGm4CaLg3gKqz-66" value="生成reply_id" style="whiteSpace=wrap;html=1;fillColor=#dae8fc;strokeColor=#6c8ebf;" vertex="1" parent="WIyWlLk6GJQsqaUBKTNV-1">
          <mxGeometry x="50" y="1260" width="120" height="60" as="geometry" />
        </mxCell>
        <mxCell id="DcaVA0wvGm4CaLg3gKqz-72" value="" style="edgeStyle=orthogonalEdgeStyle;rounded=0;orthogonalLoop=1;jettySize=auto;html=1;" edge="1" parent="WIyWlLk6GJQsqaUBKTNV-1" source="DcaVA0wvGm4CaLg3gKqz-69" target="DcaVA0wvGm4CaLg3gKqz-71">
          <mxGeometry relative="1" as="geometry" />
        </mxCell>
        <mxCell id="DcaVA0wvGm4CaLg3gKqz-69" value="格式化参数" style="whiteSpace=wrap;html=1;" vertex="1" parent="WIyWlLk6GJQsqaUBKTNV-1">
          <mxGeometry x="-110" y="1355" width="120" height="60" as="geometry" />
        </mxCell>
        <mxCell id="DcaVA0wvGm4CaLg3gKqz-74" value="" style="edgeStyle=orthogonalEdgeStyle;rounded=0;orthogonalLoop=1;jettySize=auto;html=1;" edge="1" parent="WIyWlLk6GJQsqaUBKTNV-1" source="DcaVA0wvGm4CaLg3gKqz-71" target="DcaVA0wvGm4CaLg3gKqz-73">
          <mxGeometry relative="1" as="geometry" />
        </mxCell>
        <mxCell id="DcaVA0wvGm4CaLg3gKqz-71" value="setnx到热点文章缓存" style="whiteSpace=wrap;html=1;" vertex="1" parent="WIyWlLk6GJQsqaUBKTNV-1">
          <mxGeometry x="55" y="1355" width="120" height="60" as="geometry" />
        </mxCell>
        <mxCell id="DcaVA0wvGm4CaLg3gKqz-76" value="" style="edgeStyle=orthogonalEdgeStyle;rounded=0;orthogonalLoop=1;jettySize=auto;html=1;" edge="1" parent="WIyWlLk6GJQsqaUBKTNV-1" source="DcaVA0wvGm4CaLg3gKqz-73" target="DcaVA0wvGm4CaLg3gKqz-75">
          <mxGeometry relative="1" as="geometry" />
        </mxCell>
        <mxCell id="DcaVA0wvGm4CaLg3gKqz-73" value="设置mbd_ignore参数&lt;div&gt;屏蔽手百能力&lt;/div&gt;" style="whiteSpace=wrap;html=1;" vertex="1" parent="WIyWlLk6GJQsqaUBKTNV-1">
          <mxGeometry x="55" y="1440" width="120" height="60" as="geometry" />
        </mxCell>
        <mxCell id="DcaVA0wvGm4CaLg3gKqz-75" value="设置hot_thread" style="whiteSpace=wrap;html=1;" vertex="1" parent="WIyWlLk6GJQsqaUBKTNV-1">
          <mxGeometry x="-110" y="1440" width="120" height="60" as="geometry" />
        </mxCell>
      </root>
    </mxGraphModel>
  </diagram>
</mxfile>
